PathFileType	4	(X/Y/Z)	C:/Users/opensim2020/Desktop/walking_exp_matlab/subject03_walking10_straight_03.trc																																																																																																																																					
DataRate	CameraRate	NumFrames	NumMarkers	Units	OrigDataRate	OrigDataStartFrame	OrigNumFrames																																																																																																																																	
100	100	5	45	mm	100	2894	417																																																																																																																																	
Frame#	Time	LFHD			RFHD			LBHD			RBHD			C7			T10			CLAV			STRN			RBAK			LSHO			LUPA			LELB			LFRM			LWRA			LWRB			LFIN			RSHO			RUPA			RELB			RFRM			RWRA			RWRB			RFIN			LASI			RASI			LPSI			RPSI			LTHI			LKNE			LTIB			LANK			LHEE			LTOE			RTHI			RKNE			RTIB			RANK			RHEE			RTOE			*39			*40			*41			*42			*43			*44		
		X1	Y1	Z1	X2	Y2	Z2	X3	Y3	Z3	X4	Y4	Z4	X5	Y5	Z5	X6	Y6	Z6	X7	Y7	Z7	X8	Y8	Z8	X9	Y9	Z9	X10	Y10	Z10	X11	Y11	Z11	X12	Y12	Z12	X13	Y13	Z13	X14	Y14	Z14	X15	Y15	Z15	X16	Y16	Z16	X17	Y17	Z17	X18	Y18	Z18	X19	Y19	Z19	X20	Y20	Z20	X21	Y21	Z21	X22	Y22	Z22	X23	Y23	Z23	X24	Y24	Z24	X25	Y25	Z25	X26	Y26	Z26	X27	Y27	Z27	X28	Y28	Z28	X29	Y29	Z29	X30	Y30	Z30	X31	Y31	Z31	X32	Y32	Z32	X33	Y33	Z33	X34	Y34	Z34	X35	Y35	Z35	X36	Y36	Z36	X37	Y37	Z37	X38	Y38	Z38	X39	Y39	Z39	X40	Y40	Z40	X41	Y41	Z41	X42	Y42	Z42	X43	Y43	Z43	X44	Y44	Z44	X45	Y45	Z45
																																																																																																																																								
157	1.56	-166.00949	1631.66333	1345.09705	-169.23553	1640.15088	1478.97681	-288.0665	1573.02576	1351.11218	-286.34326	1582.02014	1481.922	-305.81195	1422.58948	1406.96985	-336.77896	1110.56396	1405.71167	-183.4615	1347.40417	1414.99182	-139.02643	1182.49707	1409.86011	-361.88953	1247.20313	1500.06274	-216.11031	1384.87256	1258.12329	-196.935	1193.98206	1178.87158	-168.12502	1075.05066	1162.46729	-116.12535	955.65295	1163.99768	-77.55362	843.17902	1194.52502	-92.34664	846.2868	1140.84314	-58.19487	769.70398	1150.15979	-237.01953	1370.3302	1572.17407	-235.32028	1147.52063	1643.8064	-217.01161	1036.36609	1657.36401	-193.55392	901.15979	1659.47717	-156.58537	807.82745	1625.33032	-190.30688	801.19489	1667.49023	-163.29039	731.42804	1659.48206	-170.81238	945.15631	1289.58301	-174.12006	946.73669	1528.04016	-334.23526	972.90179	1340.03357	-334.03235	976.17426	1488.5752	-237.08765	642.4953	1260.47754	-238.50235	465.56198	1304.245	-298.71686	278.95432	1306.89307	-333.66614	73.17772	1353.20325	-375.05533	40.96008	1389.0979	-182.46025	35.16181	1367.11938	-165.92953	657.59442	1581.73083	-101.61046	488.8298	1555.95276	-188.77063	317.83414	1564.3551	-279.40451	120.33302	1527.29822	-331.34256	98.57839	1475.2489	-160.6712	47.27255	1514.96094	-255.26361	1686.0874	1394.69666	NaN	NaN	NaN	NaN	NaN	NaN	NaN	NaN	NaN	NaN	NaN	NaN	NaN	NaN	NaN
158	1.57	-158.71292	1631.05652	1346.17236	-162.04213	1639.63611	1479.27429	-281.03537	1572.87756	1351.3053	-279.37415	1581.87122	1482.13501	-299.04605	1422.36353	1407.06018	-330.49789	1110.29871	1405.44629	-176.71967	1347.01245	1415.28748	-132.57356	1182.0813	1409.71692	-355.53995	1246.75586	1499.5907	-208.90074	1384.89648	1258.44946	-188.48735	1194.67688	1178.44409	-158.07568	1076.11023	1161.63586	-104.23142	957.71979	1163.49597	-64.11008	845.81757	1194.27734	-78.72775	848.5224	1140.53772	-43.4819	772.43414	1150.28027	-230.85112	1369.74976	1572.31738	-229.73653	1146.9259	1643.87695	-211.25117	1035.79675	1657.55383	-187.87796	900.60675	1659.55322	-150.89279	807.32111	1625.27063	-184.55937	800.64465	1667.43811	-157.29643	730.90637	1659.4353	-164.51323	944.83185	1289.03772	-167.33788	946.59991	1527.30457	-327.73734	972.27155	1339.80676	-327.48206	976.01215	1488.36731	-233.00906	642.04773	1260.34033	-235.85588	465.20544	1304.34619	-297.27689	278.99588	1307.1521	-333.52737	73.54556	1353.39343	-375.06369	41.27627	1389.34302	-182.32849	35.12198	1367.24475	-157.5412	658.01373	1581.70105	-92.06786	489.76108	1555.17529	-172.778	315.61282	1563.61768	-254.64438	114.30897	1526.45581	-305.87924	90.31256	1474.21838	-132.92171	46.70852	1514.35974	-247.95876	1685.8739	1394.94702	NaN	NaN	NaN	NaN	NaN	NaN	NaN	NaN	NaN	NaN	NaN	NaN	NaN	NaN	NaN
159	1.58	-151.58951	1630.54675	1345.8811	-154.8707	1639.10168	1479.67688	-273.90036	1572.63342	1351.5415	-272.37607	1581.63281	1482.38672	-292.20007	1422.08032	1407.14111	-323.88333	1110.07825	1405.35022	-170.04256	1346.60352	1415.54419	-126.13087	1181.56921	1409.61792	-349.13162	1246.30896	1499.24658	-201.68716	1384.80615	1258.82629	-179.974	1195.35803	1178.03821	-148.22935	1077.12537	1160.86047	-92.68053	959.4361	1163.00195	-50.80085	848.41498	1194.20007	-65.24106	850.74408	1140.3667	-28.8767	775.19342	1150.61523	-224.63997	1369.10132	1572.50793	-224.08539	1146.28076	1644.01599	-205.5825	1035.16748	1657.63855	-182.12901	899.95319	1659.61499	-144.97685	806.81134	1625.33533	-178.66901	800.05402	1667.50183	-151.30573	730.40594	1659.47729	-159.8101	943.98254	1288.46143	-160.55383	946.36188	1526.65027	-321.72617	971.84473	1339.76697	-320.8613	975.64941	1488.23755	-228.94366	641.69543	1260.21643	-233.39287	464.78668	1304.37744	-295.96991	279.0498	1307.32263	-333.42065	73.7966	1353.77551	-375.04504	41.70401	1389.72571	-182.30795	35.09781	1367.3103	-149.67072	658.24133	1581.71362	-82.89231	490.56885	1554.43127	-156.93181	313.47479	1562.97461	-229.75629	108.54483	1525.5481	-279.92374	82.46546	1473.17493	-105.47726	46.40084	1513.88928	-240.57025	1685.45459	1395.1925	NaN	NaN	NaN	NaN	NaN	NaN	NaN	NaN	NaN	NaN	NaN	NaN	NaN	NaN	NaN
160	1.59	-144.34474	1629.89343	1346.88	-147.75056	1638.53857	1480.07507	-266.87625	1572.28857	1351.83289	-265.42676	1581.33435	1482.6936	-285.38062	1421.83179	1407.28125	-317.43613	1109.68054	1405.24365	-163.36215	1346.10962	1415.89551	-119.73383	1181.00537	1409.52075	-342.729	1245.85486	1498.93616	-194.48607	1384.72961	1259.21875	-171.60796	1195.8894	1177.72961	-138.38936	1078.11792	1160.25952	-81.17995	961.30658	1162.71985	-37.8124	850.89392	1194.16846	-51.93808	852.9646	1140.38342	-14.54147	777.9212	1151.03625	-218.45813	1368.41675	1572.745	-218.54735	1145.58313	1644.13757	-199.9585	1034.44434	1657.77405	-176.36639	899.27502	1659.65515	-139.12347	806.16235	1625.36938	-172.82903	799.35236	1667.38989	-145.30402	729.7182	1659.47815	-154.00388	943.48596	1287.90088	-153.74083	945.99176	1526.021	-315.75021	971.47009	1339.71362	-314.28052	975.25836	1488.15161	-224.96059	641.31207	1260.31335	-231.02438	464.50952	1304.43604	-294.80777	279.17856	1307.5448	-333.32098	74.17309	1354.02722	-374.95175	42.23083	1390.03638	-182.28166	35.06513	1367.31702	-142.33553	658.19592	1581.59351	-74.1638	491.04547	1553.58374	-141.13789	311.28424	1562.30994	-204.84566	103.44888	1524.68079	-254.00256	75.33949	1472.19531	-78.27746	46.32092	1513.24341	-233.29201	1685.12024	1395.53796	NaN	NaN	NaN	NaN	NaN	NaN	NaN	NaN	NaN	NaN	NaN	NaN	NaN	NaN	NaN
161	1.6	-137.17972	1629.27795	1347.29199	-140.71909	1637.94751	1480.56104	-259.86264	1571.79883	1352.22314	-258.4762	1580.9259	1483.05359	-278.66217	1421.37854	1407.44641	-311.08246	1109.32458	1405.23279	-156.73872	1345.55127	1416.25525	-113.3364	1180.42822	1409.57007	-336.22729	1245.34875	1498.73535	-187.32045	1384.49255	1259.66553	-163.09424	1196.3772	1177.50684	-128.95721	1078.9021	1159.75452	-69.85091	963.02197	1162.46497	-24.99861	853.41406	1194.37439	-38.84462	855.12701	1140.45398	-0.33395	780.56677	1151.5249	-212.22266	1367.63928	1573.03735	-212.90558	1144.82446	1644.28992	-194.25893	1033.66296	1657.84546	-170.55891	898.49078	1659.69958	-133.11803	805.4375	1625.46082	-167.00331	798.60956	1667.34912	-139.36627	728.98645	1659.44067	-148.27206	943.02252	1287.36792	-146.90268	945.4856	1525.45764	-309.54486	970.83063	1339.66577	-307.70538	974.72766	1488.14514	-220.97203	640.92743	1260.20251	-228.65367	464.26349	1304.37415	-293.73062	279.35754	1307.61926	-333.17654	74.73293	1354.33313	-374.89056	42.71476	1390.40015	-182.31697	35.02281	1367.31824	-135.39519	657.88861	1581.46362	-65.83782	491.27386	1552.79419	-125.59756	309.17981	1561.69482	-180.07576	98.801	1523.87878	-228.08693	68.89059	1471.35596	-51.41124	46.55316	1512.58069	NaN	NaN	NaN	NaN	NaN	NaN	NaN	NaN	NaN	NaN	NaN	NaN	NaN	NaN	NaN	NaN	NaN	NaN
